<?xml version="1.0" standalone="no"?>
<!DOCTYPE svg PUBLIC "-//W3C//DTD SVG 20010904//EN"
 "http://www.w3.org/TR/2001/REC-SVG-20010904/DTD/svg10.dtd">
<svg version="1.0" xmlns="http://www.w3.org/2000/svg"
 width="1536.000000pt" height="1536.000000pt" viewBox="0 0 1536.000000 1536.000000"
 preserveAspectRatio="xMidYMid meet">
<metadata>
Created by potrace 1.11, written by Peter Selinger 2001-2013
</metadata>
<g transform="translate(0.000000,1536.000000) scale(0.100000,-0.100000)"
fill="#000000" stroke="none">
<path d="M2120 15345 c-527 -59 -1024 -300 -1411 -685 -199 -198 -338 -390
-458 -634 -113 -230 -183 -446 -228 -706 -17 -100 -18 -346 -21 -5560 -2
-3924 0 -5490 8 -5580 48 -549 294 -1074 690 -1471 198 -199 389 -337 634
-458 227 -112 415 -174 681 -224 l120 -22 5545 0 5545 0 120 22 c265 50 452
111 680 224 245 120 438 259 635 458 395 397 634 903 690 1460 14 148 14
10876 -1 11027 -45 457 -223 895 -517 1269 -131 167 -397 404 -595 529 -303
191 -684 321 -1041 356 -175 16 -10926 12 -11076 -5z m7200 -3436 c494 -22
915 -76 1650 -210 517 -94 901 -198 1359 -366 252 -92 348 -134 476 -208 351
-202 646 -485 890 -854 123 -187 201 -330 383 -700 l164 -335 -6 -285 c-16
-666 -60 -974 -186 -1290 -114 -284 -245 -471 -544 -779 -318 -326 -701 -643
-1186 -979 -484 -336 -1033 -605 -1692 -828 -290 -99 -473 -139 -818 -179 -74
-9 -232 -28 -350 -42 -662 -78 -801 -91 -1135 -100 -239 -7 -335 0 -800 57
l-240 29 -14 -22 c-32 -50 -139 -146 -191 -171 -162 -78 -253 -75 -625 22
-493 129 -721 228 -982 426 -60 46 -95 66 -133 74 -59 13 -167 15 -174 3 -2
-4 67 -95 154 -202 87 -107 156 -197 155 -198 -2 -2 -37 4 -77 13 -40 9 -134
21 -208 25 -165 10 -241 32 -341 98 -130 86 -312 293 -733 835 l-240 307 -70
21 c-39 11 -76 26 -82 32 -21 22 -46 181 -51 333 -9 247 22 471 117 849 100
398 189 594 368 808 166 200 379 342 682 457 166 63 276 119 1020 520 359 193
832 428 928 460 83 28 101 30 268 33 l179 4 162 51 c199 62 365 92 548 99 126
4 174 0 485 -41 190 -25 397 -53 460 -61 180 -24 649 -72 815 -84 253 -19 265
-19 265 -12 0 3 -33 39 -72 78 -135 132 -364 236 -666 303 -345 76 -1098 139
-1502 125 -760 -27 -1423 -155 -2235 -431 -137 -47 -363 -123 -501 -168 -246
-82 -339 -121 -659 -276 -248 -121 -363 -207 -484 -360 -169 -213 -395 -398
-681 -555 -356 -195 -543 -333 -965 -710 -99 -89 -216 -190 -259 -225 -44 -35
-105 -87 -135 -115 -183 -167 -294 -247 -412 -295 -73 -30 -196 -60 -248 -60
-29 0 -30 1 -36 64 -4 35 -4 73 -1 84 11 34 139 156 203 194 32 19 80 44 107
54 27 10 69 37 93 60 38 36 43 45 43 86 0 31 -11 70 -37 124 -63 136 -49 244
48 349 67 73 781 558 1350 917 357 226 423 264 764 445 541 287 613 333 672
432 18 30 35 75 38 100 12 98 15 101 83 126 80 29 136 68 172 120 39 57 57
102 91 240 40 160 57 194 132 273 35 37 93 104 130 148 83 102 87 104 572 369
149 81 347 194 440 250 237 143 312 184 455 250 471 218 1107 354 1850 395
336 18 584 18 1000 -1z"/>
<path d="M8455 11654 c-22 -2 -96 -9 -165 -15 -169 -14 -375 -43 -615 -85
-684 -119 -987 -237 -1310 -511 -118 -100 -244 -186 -409 -277 -65 -36 -141
-83 -170 -103 -70 -50 -206 -183 -277 -269 -71 -87 -360 -487 -354 -492 5 -5
266 78 495 158 256 90 327 110 565 165 417 96 736 152 997 175 150 13 524 14
633 1 52 -6 106 -6 152 0 60 8 130 5 395 -21 629 -60 829 -90 1055 -159 305
-94 534 -216 850 -453 136 -103 178 -133 584 -421 232 -164 512 -382 638 -496
204 -184 343 -326 368 -374 29 -58 33 -126 8 -163 -18 -27 -100 -84 -122 -84
-8 0 -60 35 -117 79 -114 86 -304 186 -465 243 -101 35 -108 41 -215 166 -186
216 -434 314 -716 282 -58 -6 -190 -15 -295 -20 -201 -9 -341 -27 -452 -61
-101 -30 -435 -198 -537 -270 -115 -80 -212 -172 -283 -268 -104 -141 -161
-190 -308 -267 -456 -236 -690 -648 -689 -1214 0 -126 4 -171 22 -244 44 -178
139 -314 285 -409 84 -54 137 -80 450 -217 97 -43 199 -92 226 -109 26 -17 92
-78 145 -136 136 -146 251 -221 481 -311 270 -105 526 -158 760 -156 178 1
185 2 505 127 124 48 315 118 425 155 480 163 639 246 845 446 l116 112 94 30
c52 17 122 33 154 37 57 7 65 12 215 133 253 204 691 571 764 642 141 134 197
228 331 557 59 146 106 239 172 341 184 283 251 566 224 952 -32 468 -142 848
-322 1114 -61 90 -186 244 -206 254 -9 5 -46 12 -82 14 -89 7 -138 34 -240
133 -131 126 -495 424 -677 553 -114 82 -286 178 -393 221 -150 59 -631 204
-885 265 -459 112 -780 154 -1215 162 -310 5 -459 15 -600 40 -179 33 -313 44
-550 48 -135 2 -263 2 -285 0z"/>
<path d="M8530 9249 c-311 -26 -632 -91 -1115 -223 -475 -131 -835 -268 -1285
-492 -289 -144 -351 -183 -445 -278 -224 -225 -329 -563 -260 -831 8 -28 72
-188 144 -356 71 -167 152 -361 179 -429 137 -347 314 -596 596 -837 113 -96
313 -236 426 -296 59 -32 256 -85 268 -72 8 7 -28 86 -60 134 -18 25 -77 93
-131 151 -114 120 -171 201 -192 274 -16 53 -20 143 -7 163 14 21 200 -146
401 -360 104 -111 220 -229 258 -263 72 -64 197 -164 206 -164 15 0 51 111 51
160 0 98 -10 111 -328 400 -127 116 -371 368 -529 547 -91 104 -196 240 -271
353 l-77 115 47 6 c68 8 141 -6 185 -36 22 -14 70 -67 108 -118 153 -206 314
-359 516 -489 127 -82 205 -123 205 -106 0 7 -16 78 -35 158 -40 165 -50 256
-66 630 -24 543 -1 722 127 997 193 416 518 714 980 897 119 47 316 101 484
131 74 14 171 39 215 56 44 17 100 38 124 46 l44 16 -24 20 c-31 25 -110 65
-168 84 -56 19 -407 26 -571 12z"/>
<path d="M4840 7200 c1 -173 62 -514 131 -726 100 -309 288 -588 534 -789 173
-143 231 -169 275 -125 43 43 19 92 -110 226 -89 93 -124 143 -140 202 -11 45
-71 123 -221 293 -52 59 -116 143 -143 187 -68 114 -153 324 -237 584 -39 123
-75 227 -80 233 -5 5 -9 -30 -9 -85z"/>
<path d="M4611 6358 c58 -217 164 -423 285 -557 48 -53 193 -175 200 -168 2 1
-19 70 -46 152 -27 83 -50 158 -50 168 0 10 -26 46 -58 80 -70 75 -193 229
-280 350 -35 48 -67 87 -72 87 -5 0 5 -51 21 -112z"/>
</g>
</svg>
